<mxfile host="app.diagrams.net" agent="Mozilla/5.0 (Windows NT 10.0; Win64; x64) AppleWebKit/537.36 (KHTML, like Gecko) Chrome/134.0.0.0 Safari/537.36" version="26.0.11">
  <diagram name="Page-1" id="63STJmoeEcSInbaKH5au">
    <mxGraphModel dx="666" dy="368" grid="0" gridSize="10" guides="1" tooltips="1" connect="1" arrows="1" fold="1" page="0" pageScale="1" pageWidth="850" pageHeight="1100" math="1" shadow="0">
      <root>
        <mxCell id="0" />
        <mxCell id="1" parent="0" />
        <mxCell id="IBiry33m4Dp6ZYw6QMAP-16" value="$$\Delta(s)$$" style="text;html=1;align=center;verticalAlign=middle;resizable=0;points=[];autosize=1;strokeColor=none;fillColor=none;fontSize=20;movable=0;rotatable=0;deletable=0;editable=0;locked=1;connectable=0;" vertex="1" parent="1">
          <mxGeometry x="49" y="182" width="138" height="36" as="geometry" />
        </mxCell>
        <mxCell id="IBiry33m4Dp6ZYw6QMAP-6" style="edgeStyle=none;curved=1;rounded=0;orthogonalLoop=1;jettySize=auto;html=1;entryX=0;entryY=0.5;entryDx=0;entryDy=0;fontSize=12;startSize=8;endSize=8;" edge="1" parent="1" source="IBiry33m4Dp6ZYw6QMAP-1" target="IBiry33m4Dp6ZYw6QMAP-4">
          <mxGeometry relative="1" as="geometry" />
        </mxCell>
        <mxCell id="IBiry33m4Dp6ZYw6QMAP-1" value="$$G_a(s)$$" style="rounded=0;whiteSpace=wrap;html=1;fontSize=16;" vertex="1" parent="1">
          <mxGeometry x="187" y="170" width="120" height="60" as="geometry" />
        </mxCell>
        <mxCell id="IBiry33m4Dp6ZYw6QMAP-3" value="Actuator" style="text;html=1;align=center;verticalAlign=middle;resizable=0;points=[];autosize=1;strokeColor=none;fillColor=none;fontSize=18;" vertex="1" parent="1">
          <mxGeometry x="204.5" y="136" width="85" height="34" as="geometry" />
        </mxCell>
        <mxCell id="IBiry33m4Dp6ZYw6QMAP-10" style="edgeStyle=none;curved=0;rounded=0;orthogonalLoop=1;jettySize=auto;html=1;entryX=1;entryY=0.5;entryDx=0;entryDy=0;fontSize=12;startSize=8;endSize=8;" edge="1" parent="1" source="IBiry33m4Dp6ZYw6QMAP-4" target="IBiry33m4Dp6ZYw6QMAP-8">
          <mxGeometry relative="1" as="geometry">
            <Array as="points">
              <mxPoint x="520" y="200" />
              <mxPoint x="520" y="348" />
            </Array>
          </mxGeometry>
        </mxCell>
        <mxCell id="IBiry33m4Dp6ZYw6QMAP-4" value="$$G_\alpha(s), G_r(s),$$&lt;div&gt;$$G_\theta(s)$$&lt;/div&gt;" style="rounded=0;html=1;fontSize=16;whiteSpace=wrap;" vertex="1" parent="1">
          <mxGeometry x="352" y="170" width="120" height="60" as="geometry" />
        </mxCell>
        <mxCell id="IBiry33m4Dp6ZYw6QMAP-5" value="Aircraft Dynamics" style="text;html=1;align=center;verticalAlign=middle;resizable=0;points=[];autosize=1;strokeColor=none;fillColor=none;fontSize=18;" vertex="1" parent="1">
          <mxGeometry x="332.5" y="136" width="159" height="34" as="geometry" />
        </mxCell>
        <mxCell id="IBiry33m4Dp6ZYw6QMAP-7" style="edgeStyle=none;curved=1;rounded=0;orthogonalLoop=1;jettySize=auto;html=1;exitX=0.25;exitY=1;exitDx=0;exitDy=0;fontSize=12;startSize=8;endSize=8;" edge="1" parent="1" source="IBiry33m4Dp6ZYw6QMAP-4" target="IBiry33m4Dp6ZYw6QMAP-4">
          <mxGeometry relative="1" as="geometry" />
        </mxCell>
        <mxCell id="IBiry33m4Dp6ZYw6QMAP-17" style="edgeStyle=none;curved=1;rounded=0;orthogonalLoop=1;jettySize=auto;html=1;fontSize=12;startSize=8;endSize=8;movable=1;resizable=1;rotatable=1;deletable=1;editable=1;locked=0;connectable=1;" edge="1" parent="1" source="IBiry33m4Dp6ZYw6QMAP-8">
          <mxGeometry relative="1" as="geometry">
            <mxPoint x="269" y="348" as="targetPoint" />
          </mxGeometry>
        </mxCell>
        <mxCell id="IBiry33m4Dp6ZYw6QMAP-8" value="$$G_m(s)$$" style="rounded=0;whiteSpace=wrap;html=1;fontSize=16;" vertex="1" parent="1">
          <mxGeometry x="352" y="318" width="120" height="60" as="geometry" />
        </mxCell>
        <mxCell id="IBiry33m4Dp6ZYw6QMAP-9" value="Sensor" style="text;html=1;align=center;verticalAlign=middle;resizable=0;points=[];autosize=1;strokeColor=none;fillColor=none;fontSize=18;" vertex="1" parent="1">
          <mxGeometry x="375.5" y="286" width="75" height="34" as="geometry" />
        </mxCell>
        <mxCell id="IBiry33m4Dp6ZYw6QMAP-11" value="$$A_m(s)$$&lt;div&gt;&lt;span style=&quot;background-color: transparent; color: light-dark(rgb(0, 0, 0), rgb(255, 255, 255));&quot;&gt;$$R_m(s)$$&lt;/span&gt;&lt;div&gt;$$\theta_m(s)$$&lt;/div&gt;&lt;/div&gt;" style="text;html=1;align=center;verticalAlign=middle;resizable=0;points=[];autosize=1;strokeColor=none;fillColor=none;fontSize=20;rotation=0;movable=0;rotatable=0;deletable=0;editable=0;locked=1;connectable=0;" vertex="1" parent="1">
          <mxGeometry x="143" y="306" width="164" height="84" as="geometry" />
        </mxCell>
        <mxCell id="IBiry33m4Dp6ZYw6QMAP-15" style="edgeStyle=none;curved=1;rounded=0;orthogonalLoop=1;jettySize=auto;html=1;fontSize=12;startSize=8;endSize=8;startArrow=classic;startFill=1;endArrow=none;" edge="1" parent="1">
          <mxGeometry relative="1" as="geometry">
            <mxPoint x="473.4232543945312" y="200" as="targetPoint" />
            <mxPoint x="557" y="200" as="sourcePoint" />
          </mxGeometry>
        </mxCell>
        <mxCell id="IBiry33m4Dp6ZYw6QMAP-14" value="$$A(s)$$&lt;div&gt;$$R(s)$$&lt;/div&gt;&lt;div&gt;&lt;span style=&quot;background-color: transparent; color: light-dark(rgb(0, 0, 0), rgb(255, 255, 255));&quot;&gt;$$\theta(s)$$&lt;/span&gt;&lt;/div&gt;" style="text;html=1;align=center;verticalAlign=middle;resizable=0;points=[];autosize=1;strokeColor=none;fillColor=none;fontSize=20;movable=0;rotatable=0;deletable=0;editable=0;locked=1;connectable=0;" vertex="1" parent="1">
          <mxGeometry x="521" y="159" width="136" height="84" as="geometry" />
        </mxCell>
        <mxCell id="IBiry33m4Dp6ZYw6QMAP-2" style="edgeStyle=none;curved=1;rounded=0;orthogonalLoop=1;jettySize=auto;html=1;fontSize=12;startArrow=classic;startFill=1;endArrow=none;" edge="1" parent="1" source="IBiry33m4Dp6ZYw6QMAP-1">
          <mxGeometry relative="1" as="geometry">
            <mxPoint x="150" y="200" as="targetPoint" />
          </mxGeometry>
        </mxCell>
        <mxCell id="IBiry33m4Dp6ZYw6QMAP-20" value="Actual Quantity" style="text;html=1;align=center;verticalAlign=middle;resizable=0;points=[];autosize=1;strokeColor=none;fillColor=none;fontSize=16;" vertex="1" parent="1">
          <mxGeometry x="525.5" y="112" width="127" height="31" as="geometry" />
        </mxCell>
        <mxCell id="IBiry33m4Dp6ZYw6QMAP-21" value="Measured Quantity" style="text;html=1;align=center;verticalAlign=middle;resizable=0;points=[];autosize=1;strokeColor=none;fillColor=none;fontSize=16;" vertex="1" parent="1">
          <mxGeometry x="148.5" y="258" width="153" height="31" as="geometry" />
        </mxCell>
      </root>
    </mxGraphModel>
  </diagram>
</mxfile>
